<?xml version="1.0" encoding="UTF-8"?>
<svg width="32px" height="32px" viewBox="0 0 32 32" version="1.1" xmlns="http://www.w3.org/2000/svg" xmlns:xlink="http://www.w3.org/1999/xlink">
    <title>favicon</title>
    <g stroke="none" fill="none" fill-rule="evenodd" stroke-width="1">
        <g transform="translate(0, 0)">
            <path d="M16,0 L16,3.98222222 C9.36276463,3.98222222 3.98222223,9.36276462 3.98222223,16 C3.98222223,22.6372354 9.36276463,28.0177777 16,28.0177777 L16,31.999936 L15.7354107,31.9978564 C7.02089144,31.8565638 0,24.7481904 0,16 C0,7.25180956 7.02089144,0.143436191 15.7354107,0.00214354287 L16,0 Z" fill="#B8975B" fill-rule="nonzero"></path>
            <path d="M32,16 C32,24.836556 24.836556,32 16,32 L16,28.0177777 C22.6372354,28.0177777 28.0177778,22.6372354 28.0177778,16 L32,16 Z" fill="#DD5126" fill-rule="nonzero"></path>
            <path d="M16,3.98222222 L16,7.96444444 C11.5620852,7.96444444 7.96444444,11.5620852 7.96444444,16 L3.98222223,16 C3.98222223,9.36276462 9.36276463,3.98222222 16,3.98222222 Z" fill="#4270E8" fill-rule="nonzero"></path>
            <path d="M28.0177778,16 C28.0177778,22.6372354 22.6372354,28.0177777 16,28.0177777 L16,24.0355556 C20.4379148,24.0355556 24.0355556,20.4379148 24.0355556,16 L28.0177778,16 Z" fill="#EFCF53" fill-rule="nonzero"></path>
            <path d="M7.96444444,16 C7.96444444,20.4379148 11.5620852,24.0355556 16,24.0355556 L16,28.0177777 C9.36276463,28.0177777 3.98222223,22.6372354 3.98222223,16 L7.96444444,16 Z" fill="#346E26" fill-rule="nonzero"></path>
            <path d="M28.0177778,16 C28.0177778,19.3186177 26.6726422,22.3230621 24.4978522,24.4978522 L21.6819958,21.6819958 C23.1361454,20.2278463 24.0355556,18.2189574 24.0355556,16 L28.0177778,16 Z" fill="#DD8526" fill-rule="nonzero"></path>
        </g>
    </g>
</svg>