<?xml version="1.0" encoding="UTF-8"?>
<svg width="512px" height="512px" viewBox="0 0 512 512" version="1.1" xmlns="http://www.w3.org/2000/svg">
    <title>colorizr</title>
    <g>
        <path d="M256,4.54747351e-13 L256,63.7155556 C149.804234,63.7155556 63.7155556,149.804234 63.7155556,256 C63.7155556,362.195766 149.804234,448.284444 256,448.284444 L256,511.998976 L251.766572,511.965703 C112.334263,509.705021 0,395.971047 0,256 C0,116.028953 112.334263,2.29497906 251.766572,0.0342966859 L256,4.54747351e-13 Z" fill="#332812"></path>
        <path d="M512,256 C512,397.384896 397.384896,512 256,512 L256,448.284444 C362.195766,448.284444 448.284444,362.195766 448.284444,256 L512,256 Z" fill="#DD5126"></path>
        <path d="M256,63.7155556 L256,127.431111 C184.993363,127.431111 127.431111,184.993363 127.431111,256 L63.7155556,256 C63.7155556,149.804234 149.804234,63.7155556 256,63.7155556 Z" fill="#4270E8"></path>
        <path d="M448.284444,256 C448.284444,362.195766 362.195766,448.284444 256,448.284444 L256,384.568889 C327.006637,384.568889 384.568889,327.006637 384.568889,256 L448.284444,256 Z" fill="#EFCF53"></path>
        <path d="M127.431111,256 C127.431111,327.006637 184.993363,384.568889 256,384.568889 L256,448.284444 C149.804234,448.284444 63.7155556,362.195766 63.7155556,256 L127.431111,256 Z" fill="#346E26"></path>
        <path d="M448.284444,256 C448.284444,309.097883 426.762275,357.168994 391.965635,391.965635 L346.911933,346.911933 C370.178326,323.645541 384.568889,291.503318 384.568889,256 L448.284444,256 Z" fill="#DD8526"></path>
    </g>
</svg>
