<?xml version="1.0" encoding="UTF-8"?>
<svg width="1024px" height="277px" viewBox="0 0 1024 277" version="1.1" xmlns="http://www.w3.org/2000/svg">
    <title>colorizr</title>
    <g>
        <path d="M136.459418,0 L136.459418,33.9632329 C79.852338,33.9632329 33.9632329,79.852338 33.9632329,136.459418 C33.9632329,193.066498 79.852338,238.955603 136.459418,238.955603 L136.459418,272.91829 L134.202812,272.900554 C59.8791726,271.695509 0,211.070229 0,136.459418 C0,61.8486069 59.8791726,1.2233262 134.202812,0.0182816632 L136.459418,0 Z" fill="#332812"></path>
        <path d="M272.918836,136.459418 C272.918836,211.823873 211.823873,272.918836 136.459418,272.918836 L136.459418,238.955603 C193.066498,238.955603 238.955603,193.066498 238.955603,136.459418 L272.918836,136.459418 Z" fill="#DD5126"></path>
        <path d="M136.459418,33.9632329 L136.459418,67.9264658 C98.6097135,67.9264658 67.9264658,98.6097135 67.9264658,136.459418 L33.9632329,136.459418 C33.9632329,79.852338 79.852338,33.9632329 136.459418,33.9632329 Z" fill="#4270E8"></path>
        <path d="M238.955603,136.459418 C238.955603,193.066498 193.066498,238.955603 136.459418,238.955603 L136.459418,204.99237 C174.309122,204.99237 204.99237,174.309122 204.99237,136.459418 L238.955603,136.459418 Z" fill="#EFCF53"></path>
        <path d="M67.9264658,136.459418 C67.9264658,174.309122 98.6097135,204.99237 136.459418,204.99237 L136.459418,238.955603 C79.852338,238.955603 33.9632329,193.066498 33.9632329,136.459418 L67.9264658,136.459418 Z" fill="#346E26"></path>
        <path d="M238.955603,136.459418 C238.955603,164.762958 227.483326,190.387004 208.935165,208.935165 L184.919533,184.919533 C197.321558,172.517508 204.99237,155.38427 204.99237,136.459418 L238.955603,136.459418 Z" fill="#DD8526"></path>
        <path d="M347.899021,245.119494 C330.852255,245.119494 315.116778,232.531112 315.116778,208.403382 C315.116778,184.013393 330.852255,171.687269 347.899021,171.687269 C364.945788,171.687269 380.681264,184.013393 380.681264,208.403382 C380.681264,232.79337 364.945788,245.119494 347.899021,245.119494 Z M347.899021,139.954058 C309.347104,139.954058 280.236472,168.540174 280.236472,208.403382 C280.236472,248.004331 309.347104,276.852705 347.899021,276.852705 C386.450939,276.852705 415.561571,248.004331 415.561571,208.403382 C415.561571,168.540174 386.450939,139.954058 347.899021,139.954058 Z" fill="#332812"></path>
        <polygon fill="#332812" points="477.094107 272.918836 477.094107 83.0440845 442.213801 83.0440845 442.213801 272.918836"></polygon>
        <path d="M561.814084,245.119494 C544.767318,245.119494 529.031841,232.531112 529.031841,208.403382 C529.031841,184.013393 544.767318,171.687269 561.814084,171.687269 C578.86085,171.687269 594.596327,184.013393 594.596327,208.403382 C594.596327,232.79337 578.86085,245.119494 561.814084,245.119494 Z M561.814084,139.954058 C523.262166,139.954058 494.151535,168.540174 494.151535,208.403382 C494.151535,248.004331 523.262166,276.852705 561.814084,276.852705 C600.366002,276.852705 629.476633,248.004331 629.476633,208.403382 C629.476633,168.540174 600.366002,139.954058 561.814084,139.954058 Z" fill="#332812"></path>
        <path d="M734.806247,143.363411 C732.183667,143.101154 729.561088,142.838896 726.67625,142.838896 C715.661417,142.838896 697.827877,145.985991 689.960138,163.032757 L689.960138,143.887927 L656.128864,143.887927 L656.128864,272.918836 L691.00917,272.918836 L691.00917,213.910798 C691.00917,186.111456 706.482389,177.456944 724.315929,177.456944 C727.463024,177.456944 730.872377,177.719202 734.806247,178.505976 L734.806247,143.363411 Z" fill="#332812"></path>
        <path d="M790.940107,272.918836 L790.940107,143.887927 L756.059801,143.887927 L756.059801,272.918836 L790.940107,272.918836 Z M751.863674,101.664398 C751.863674,113.203748 761.567218,122.907292 773.368825,122.907292 C785.432691,122.907292 794.873977,113.203748 794.873977,101.664398 C794.873977,89.600533 785.432691,79.8969891 773.368825,79.8969891 C761.567218,79.8969891 751.863674,89.600533 751.863674,101.664398 Z" fill="#332812"></path>
        <polygon fill="#332812" points="928.26519 272.918836 928.26519 242.496914 864.274251 242.496914 927.216158 172.998559 927.216158 143.887927 823.099754 143.887927 823.099754 174.047591 882.632308 174.047591 821.526207 242.234656 821.526207 272.918836"></polygon>
        <path d="M1024,143.363411 C1021.37742,143.101154 1018.75484,142.838896 1015.87,142.838896 C1004.85517,142.838896 987.02163,145.985991 979.153892,163.032757 L979.153892,143.887927 L945.322617,143.887927 L945.322617,272.918836 L980.202923,272.918836 L980.202923,213.910798 C980.202923,186.111456 995.676142,177.456944 1013.50968,177.456944 C1016.65678,177.456944 1020.06613,177.719202 1024,178.505976 L1024,143.363411 Z" fill="#332812"></path>
    </g>
</svg>
